<svg width="24" height="24" viewBox="0 0 24 24" fill="none" xmlns="http://www.w3.org/2000/svg">
<path fill-rule="evenodd" clip-rule="evenodd" d="M3.64035 3.41821C4.98463 2.34241 6.69241 1.84579 8.39658 2.042C9.69435 2.19142 10.9708 2.67699 11.9957 3.5569C12.9952 2.68309 14.2253 2.1927 15.5341 2.042C17.2364 1.84601 18.9422 2.34129 20.2858 3.41458C21.8661 4.50308 22.6462 6.19405 22.9008 7.87033C23.1562 9.55156 22.9025 11.3159 22.3154 12.6959C21.3871 14.8815 19.6251 16.766 17.9099 18.2209C16.1808 19.6877 14.4179 20.7855 13.3869 21.3794C12.5236 21.8767 11.4707 21.8734 10.6105 21.372C9.58815 20.7761 7.84465 19.6783 6.12699 18.2133C4.42258 16.7596 2.66825 14.8812 1.71659 12.7068C1.109 11.3303 0.847774 9.56463 1.08906 7.8845C1.32966 6.20916 2.09006 4.51085 3.64035 3.41821ZM18.5755 6.18253C18.1239 5.86464 17.5001 5.97305 17.1822 6.42468C16.8643 6.87631 16.9727 7.50012 17.4244 7.81801C17.5929 7.93662 17.8424 8.29933 17.9513 8.90728C18.0554 9.4878 17.9923 10.1 17.7667 10.5603C17.5238 11.0562 17.7288 11.6553 18.2248 11.8983C18.7207 12.1413 19.3198 11.9362 19.5628 11.4402C20.0115 10.5244 20.0832 9.4654 19.92 8.55442C19.7616 7.67087 19.3415 6.72169 18.5755 6.18253Z" fill="black"/>
</svg>
